<?xml version="1.0" encoding="utf-8" standalone="no"?>
<!DOCTYPE svg PUBLIC "-//W3C//DTD SVG 1.1//EN"
  "http://www.w3.org/Graphics/SVG/1.1/DTD/svg11.dtd">
<svg xmlns:xlink="http://www.w3.org/1999/xlink" width="497.072155pt" height="519.037261pt" viewBox="0 0 497.072155 519.037261" xmlns="http://www.w3.org/2000/svg" version="1.1">
 <metadata>
  <rdf:RDF xmlns:dc="http://purl.org/dc/elements/1.1/" xmlns:cc="http://creativecommons.org/ns#" xmlns:rdf="http://www.w3.org/1999/02/22-rdf-syntax-ns#">
   <cc:Work>
    <dc:type rdf:resource="http://purl.org/dc/dcmitype/StillImage"/>
    <dc:date>2023-03-31T13:57:16.249453</dc:date>
    <dc:format>image/svg+xml</dc:format>
    <dc:creator>
     <cc:Agent>
      <dc:title>Matplotlib v3.7.1, https://matplotlib.org/</dc:title>
     </cc:Agent>
    </dc:creator>
   </cc:Work>
  </rdf:RDF>
 </metadata>
 <defs>
  <style type="text/css">*{stroke-linejoin: round; stroke-linecap: butt}</style>
 </defs>
 <g id="figure_1">
  <g id="patch_1">
   <path d="M 0 519.037261 
L 497.072155 519.037261 
L 497.072155 0 
L 0 0 
z
" style="fill: #ffffff"/>
  </g>
  <g id="axes_1">
   <g id="patch_2">
    <path d="M 72.965012 464.912 
L 476.165012 464.912 
L 476.165012 142.352 
L 72.965012 142.352 
z
" style="fill: #ffffff"/>
   </g>
   <g id="matplotlib.axis_1">
    <g id="xtick_1">
     <g id="line2d_1">
      <path d="M 72.965012 464.912 
L 72.965012 142.352 
" clip-path="url(#p3f14b94b79)" style="fill: none; stroke-dasharray: 0.8,3.2; stroke-dashoffset: 0; stroke: #000000; stroke-width: 0.8"/>
     </g>
     <g id="line2d_2">
      <defs>
       <path id="m702214ab33" d="M 0 0 
L 0 4 
" style="stroke: #000000; stroke-width: 1.1"/>
      </defs>
      <g>
       <use xlink:href="#m702214ab33" x="72.965012" y="464.912" style="stroke: #000000; stroke-width: 1.1"/>
      </g>
     </g>
     <g id="text_1">
      <!-- $\mathdefault{0}$ -->
      <g transform="translate(68.395964 486.248997) scale(0.2 -0.2)">
       <defs>
        <path id="CMR17-30" d="M 2688 2025 
C 2688 2416 2682 3080 2413 3591 
C 2176 4039 1798 4198 1466 4198 
C 1158 4198 768 4058 525 3597 
C 269 3118 243 2524 243 2025 
C 243 1661 250 1106 448 619 
C 723 -39 1216 -128 1466 -128 
C 1760 -128 2208 -7 2470 600 
C 2662 1042 2688 1559 2688 2025 
z
M 1466 -26 
C 1056 -26 813 325 723 812 
C 653 1188 653 1738 653 2096 
C 653 2588 653 2997 736 3387 
C 858 3929 1216 4096 1466 4096 
C 1728 4096 2067 3923 2189 3400 
C 2272 3036 2278 2607 2278 2096 
C 2278 1680 2278 1169 2202 792 
C 2067 95 1690 -26 1466 -26 
z
" transform="scale(0.015625)"/>
       </defs>
       <use xlink:href="#CMR17-30" transform="scale(0.996264)"/>
      </g>
     </g>
    </g>
    <g id="xtick_2">
     <g id="line2d_3">
      <path d="M 140.165012 464.912 
L 140.165012 142.352 
" clip-path="url(#p3f14b94b79)" style="fill: none; stroke-dasharray: 0.8,3.2; stroke-dashoffset: 0; stroke: #000000; stroke-width: 0.8"/>
     </g>
     <g id="line2d_4">
      <g>
       <use xlink:href="#m702214ab33" x="140.165012" y="464.912" style="stroke: #000000; stroke-width: 1.1"/>
      </g>
     </g>
     <g id="text_2">
      <!-- $\mathdefault{50}$ -->
      <g transform="translate(131.026917 486.248997) scale(0.2 -0.2)">
       <defs>
        <path id="CMR17-35" d="M 730 3692 
C 794 3666 1056 3584 1325 3584 
C 1920 3584 2246 3911 2432 4100 
C 2432 4157 2432 4192 2394 4192 
C 2387 4192 2374 4192 2323 4163 
C 2099 4058 1837 3973 1517 3973 
C 1325 3973 1037 3999 723 4139 
C 653 4171 640 4171 634 4171 
C 602 4171 595 4164 595 4037 
L 595 2203 
C 595 2089 595 2057 659 2057 
C 691 2057 704 2070 736 2114 
C 941 2401 1222 2522 1542 2522 
C 1766 2522 2246 2382 2246 1289 
C 2246 1085 2246 715 2054 421 
C 1894 159 1645 25 1370 25 
C 947 25 518 320 403 814 
C 429 807 480 795 506 795 
C 589 795 749 840 749 1038 
C 749 1210 627 1280 506 1280 
C 358 1280 262 1190 262 1011 
C 262 454 704 -128 1382 -128 
C 2042 -128 2669 440 2669 1264 
C 2669 2030 2170 2624 1549 2624 
C 1222 2624 947 2503 730 2274 
L 730 3692 
z
" transform="scale(0.015625)"/>
       </defs>
       <use xlink:href="#CMR17-35" transform="scale(0.996264)"/>
       <use xlink:href="#CMR17-30" transform="translate(45.690477 0) scale(0.996264)"/>
      </g>
     </g>
    </g>
    <g id="xtick_3">
     <g id="line2d_5">
      <path d="M 207.365012 464.912 
L 207.365012 142.352 
" clip-path="url(#p3f14b94b79)" style="fill: none; stroke-dasharray: 0.8,3.2; stroke-dashoffset: 0; stroke: #000000; stroke-width: 0.8"/>
     </g>
     <g id="line2d_6">
      <g>
       <use xlink:href="#m702214ab33" x="207.365012" y="464.912" style="stroke: #000000; stroke-width: 1.1"/>
      </g>
     </g>
     <g id="text_3">
      <!-- $\mathdefault{100}$ -->
      <g transform="translate(193.657869 486.248997) scale(0.2 -0.2)">
       <defs>
        <path id="CMR17-31" d="M 1702 4058 
C 1702 4192 1696 4192 1606 4192 
C 1357 3916 979 3827 621 3827 
C 602 3827 570 3827 563 3808 
C 557 3795 557 3782 557 3648 
C 755 3648 1088 3686 1344 3839 
L 1344 461 
C 1344 236 1331 160 781 160 
L 589 160 
L 589 0 
C 896 0 1216 0 1523 0 
C 1830 0 2150 0 2458 0 
L 2458 160 
L 2266 160 
C 1715 160 1702 230 1702 458 
L 1702 4058 
z
" transform="scale(0.015625)"/>
       </defs>
       <use xlink:href="#CMR17-31" transform="scale(0.996264)"/>
       <use xlink:href="#CMR17-30" transform="translate(45.690477 0) scale(0.996264)"/>
       <use xlink:href="#CMR17-30" transform="translate(91.380954 0) scale(0.996264)"/>
      </g>
     </g>
    </g>
    <g id="xtick_4">
     <g id="line2d_7">
      <path d="M 274.565012 464.912 
L 274.565012 142.352 
" clip-path="url(#p3f14b94b79)" style="fill: none; stroke-dasharray: 0.8,3.2; stroke-dashoffset: 0; stroke: #000000; stroke-width: 0.8"/>
     </g>
     <g id="line2d_8">
      <g>
       <use xlink:href="#m702214ab33" x="274.565012" y="464.912" style="stroke: #000000; stroke-width: 1.1"/>
      </g>
     </g>
     <g id="text_4">
      <!-- $\mathdefault{150}$ -->
      <g transform="translate(260.857869 486.248997) scale(0.2 -0.2)">
       <use xlink:href="#CMR17-31" transform="scale(0.996264)"/>
       <use xlink:href="#CMR17-35" transform="translate(45.690477 0) scale(0.996264)"/>
       <use xlink:href="#CMR17-30" transform="translate(91.380954 0) scale(0.996264)"/>
      </g>
     </g>
    </g>
    <g id="xtick_5">
     <g id="line2d_9">
      <path d="M 341.765012 464.912 
L 341.765012 142.352 
" clip-path="url(#p3f14b94b79)" style="fill: none; stroke-dasharray: 0.8,3.2; stroke-dashoffset: 0; stroke: #000000; stroke-width: 0.8"/>
     </g>
     <g id="line2d_10">
      <g>
       <use xlink:href="#m702214ab33" x="341.765012" y="464.912" style="stroke: #000000; stroke-width: 1.1"/>
      </g>
     </g>
     <g id="text_5">
      <!-- $\mathdefault{200}$ -->
      <g transform="translate(328.057869 486.248997) scale(0.2 -0.2)">
       <defs>
        <path id="CMR17-32" d="M 2669 989 
L 2554 989 
C 2490 536 2438 459 2413 420 
C 2381 369 1920 369 1830 369 
L 602 369 
C 832 619 1280 1072 1824 1597 
C 2214 1967 2669 2402 2669 3035 
C 2669 3790 2067 4224 1395 4224 
C 691 4224 262 3604 262 3030 
C 262 2780 448 2748 525 2748 
C 589 2748 781 2787 781 3010 
C 781 3207 614 3264 525 3264 
C 486 3264 448 3258 422 3245 
C 544 3790 915 4058 1306 4058 
C 1862 4058 2227 3617 2227 3035 
C 2227 2479 1901 2000 1536 1584 
L 262 146 
L 262 0 
L 2515 0 
L 2669 989 
z
" transform="scale(0.015625)"/>
       </defs>
       <use xlink:href="#CMR17-32" transform="scale(0.996264)"/>
       <use xlink:href="#CMR17-30" transform="translate(45.690477 0) scale(0.996264)"/>
       <use xlink:href="#CMR17-30" transform="translate(91.380954 0) scale(0.996264)"/>
      </g>
     </g>
    </g>
    <g id="xtick_6">
     <g id="line2d_11">
      <path d="M 408.965012 464.912 
L 408.965012 142.352 
" clip-path="url(#p3f14b94b79)" style="fill: none; stroke-dasharray: 0.8,3.2; stroke-dashoffset: 0; stroke: #000000; stroke-width: 0.8"/>
     </g>
     <g id="line2d_12">
      <g>
       <use xlink:href="#m702214ab33" x="408.965012" y="464.912" style="stroke: #000000; stroke-width: 1.1"/>
      </g>
     </g>
     <g id="text_6">
      <!-- $\mathdefault{250}$ -->
      <g transform="translate(395.257869 486.248997) scale(0.2 -0.2)">
       <use xlink:href="#CMR17-32" transform="scale(0.996264)"/>
       <use xlink:href="#CMR17-35" transform="translate(45.690477 0) scale(0.996264)"/>
       <use xlink:href="#CMR17-30" transform="translate(91.380954 0) scale(0.996264)"/>
      </g>
     </g>
    </g>
    <g id="xtick_7">
     <g id="line2d_13">
      <path d="M 476.165012 464.912 
L 476.165012 142.352 
" clip-path="url(#p3f14b94b79)" style="fill: none; stroke-dasharray: 0.8,3.2; stroke-dashoffset: 0; stroke: #000000; stroke-width: 0.8"/>
     </g>
     <g id="line2d_14">
      <g>
       <use xlink:href="#m702214ab33" x="476.165012" y="464.912" style="stroke: #000000; stroke-width: 1.1"/>
      </g>
     </g>
     <g id="text_7">
      <!-- $\mathdefault{300}$ -->
      <g transform="translate(462.457869 486.248997) scale(0.2 -0.2)">
       <defs>
        <path id="CMR17-33" d="M 1414 2157 
C 1984 2157 2234 1662 2234 1090 
C 2234 320 1824 25 1453 25 
C 1114 25 563 194 390 693 
C 422 680 454 680 486 680 
C 640 680 755 782 755 948 
C 755 1133 614 1216 486 1216 
C 378 1216 211 1165 211 926 
C 211 335 787 -128 1466 -128 
C 2176 -128 2720 430 2720 1085 
C 2720 1707 2208 2157 1600 2227 
C 2086 2328 2554 2756 2554 3329 
C 2554 3820 2048 4179 1472 4179 
C 890 4179 378 3829 378 3329 
C 378 3110 544 3072 627 3072 
C 762 3072 877 3155 877 3321 
C 877 3486 762 3569 627 3569 
C 602 3569 570 3569 544 3557 
C 730 3959 1235 4032 1459 4032 
C 1683 4032 2106 3925 2106 3320 
C 2106 3143 2080 2828 1862 2550 
C 1670 2304 1453 2304 1242 2284 
C 1210 2284 1062 2269 1037 2269 
C 992 2263 966 2257 966 2208 
C 966 2163 973 2157 1101 2157 
L 1414 2157 
z
" transform="scale(0.015625)"/>
       </defs>
       <use xlink:href="#CMR17-33" transform="scale(0.996264)"/>
       <use xlink:href="#CMR17-30" transform="translate(45.690477 0) scale(0.996264)"/>
       <use xlink:href="#CMR17-30" transform="translate(91.380954 0) scale(0.996264)"/>
      </g>
     </g>
    </g>
    <g id="text_8">
     <!-- $M$ -->
     <g transform="translate(265.12767 507.961627) scale(0.2 -0.2)">
      <defs>
       <path id="CMMI12-4d" d="M 5811 3886 
C 5869 4103 5882 4167 6336 4167 
C 6458 4167 6515 4167 6515 4288 
C 6515 4352 6470 4352 6349 4352 
L 5581 4352 
C 5421 4352 5414 4346 5344 4243 
L 3008 562 
L 2528 4211 
C 2509 4352 2502 4352 2336 4352 
L 1542 4352 
C 1421 4352 1363 4352 1363 4231 
C 1363 4167 1421 4167 1517 4167 
C 1907 4167 1907 4116 1907 4046 
C 1907 4034 1907 3995 1882 3899 
L 1062 634 
C 986 327 838 186 410 186 
C 390 186 314 186 314 73 
C 314 0 371 0 397 0 
C 525 0 851 0 979 0 
L 1286 0 
C 1376 0 1485 0 1574 0 
C 1619 0 1690 0 1690 122 
C 1690 180 1626 186 1600 186 
C 1389 186 1184 224 1184 454 
C 1184 518 1184 524 1210 613 
L 2093 4129 
L 2099 4129 
L 2630 172 
C 2650 19 2656 0 2714 0 
C 2784 0 2816 51 2848 109 
L 5421 4161 
L 5427 4161 
L 4499 473 
C 4442 250 4429 186 3981 186 
C 3859 186 3795 186 3795 70 
C 3795 0 3853 0 3891 0 
C 4000 0 4128 0 4237 0 
L 4992 0 
C 5101 0 5235 0 5344 0 
C 5395 0 5466 0 5466 122 
C 5466 186 5408 186 5312 186 
C 4922 186 4922 234 4922 294 
C 4922 301 4922 345 4934 396 
L 5811 3886 
z
" transform="scale(0.015625)"/>
      </defs>
      <use xlink:href="#CMMI12-4d" transform="scale(0.996264)"/>
     </g>
    </g>
   </g>
   <g id="matplotlib.axis_2">
    <g id="ytick_1">
     <g id="line2d_15">
      <path d="M 72.965012 464.912 
L 476.165012 464.912 
" clip-path="url(#p3f14b94b79)" style="fill: none; stroke-dasharray: 0.8,3.2; stroke-dashoffset: 0; stroke: #000000; stroke-width: 0.8"/>
     </g>
     <g id="line2d_16">
      <defs>
       <path id="ma2d74c835d" d="M 0 0 
L -4 0 
" style="stroke: #000000; stroke-width: 1.1"/>
      </defs>
      <g>
       <use xlink:href="#ma2d74c835d" x="72.965012" y="464.912" style="stroke: #000000; stroke-width: 1.1"/>
      </g>
     </g>
     <g id="text_9">
      <!-- $\mathdefault{0}$ -->
      <g transform="translate(56.326917 471.830498) scale(0.2 -0.2)">
       <use xlink:href="#CMR17-30" transform="scale(0.996264)"/>
      </g>
     </g>
    </g>
    <g id="ytick_2">
     <g id="line2d_17">
      <path d="M 72.965012 423.23847 
L 476.165012 423.23847 
" clip-path="url(#p3f14b94b79)" style="fill: none; stroke-dasharray: 0.8,3.2; stroke-dashoffset: 0; stroke: #000000; stroke-width: 0.8"/>
     </g>
     <g id="line2d_18">
      <g>
       <use xlink:href="#ma2d74c835d" x="72.965012" y="423.23847" style="stroke: #000000; stroke-width: 1.1"/>
      </g>
     </g>
     <g id="text_10">
      <!-- $\mathdefault{200}$ -->
      <g transform="translate(38.050726 430.156969) scale(0.2 -0.2)">
       <use xlink:href="#CMR17-32" transform="scale(0.996264)"/>
       <use xlink:href="#CMR17-30" transform="translate(45.690477 0) scale(0.996264)"/>
       <use xlink:href="#CMR17-30" transform="translate(91.380954 0) scale(0.996264)"/>
      </g>
     </g>
    </g>
    <g id="ytick_3">
     <g id="line2d_19">
      <path d="M 72.965012 381.564941 
L 476.165012 381.564941 
" clip-path="url(#p3f14b94b79)" style="fill: none; stroke-dasharray: 0.8,3.2; stroke-dashoffset: 0; stroke: #000000; stroke-width: 0.8"/>
     </g>
     <g id="line2d_20">
      <g>
       <use xlink:href="#ma2d74c835d" x="72.965012" y="381.564941" style="stroke: #000000; stroke-width: 1.1"/>
      </g>
     </g>
     <g id="text_11">
      <!-- $\mathdefault{400}$ -->
      <g transform="translate(38.050726 388.483439) scale(0.2 -0.2)">
       <defs>
        <path id="CMR17-34" d="M 2150 4122 
C 2150 4256 2144 4256 2029 4256 
L 128 1254 
L 128 1088 
L 1779 1088 
L 1779 457 
C 1779 224 1766 160 1318 160 
L 1197 160 
L 1197 0 
C 1402 0 1747 0 1965 0 
C 2182 0 2528 0 2733 0 
L 2733 160 
L 2611 160 
C 2163 160 2150 224 2150 457 
L 2150 1088 
L 2803 1088 
L 2803 1254 
L 2150 1254 
L 2150 4122 
z
M 1798 3703 
L 1798 1254 
L 256 1254 
L 1798 3703 
z
" transform="scale(0.015625)"/>
       </defs>
       <use xlink:href="#CMR17-34" transform="scale(0.996264)"/>
       <use xlink:href="#CMR17-30" transform="translate(45.690477 0) scale(0.996264)"/>
       <use xlink:href="#CMR17-30" transform="translate(91.380954 0) scale(0.996264)"/>
      </g>
     </g>
    </g>
    <g id="ytick_4">
     <g id="line2d_21">
      <path d="M 72.965012 339.891411 
L 476.165012 339.891411 
" clip-path="url(#p3f14b94b79)" style="fill: none; stroke-dasharray: 0.8,3.2; stroke-dashoffset: 0; stroke: #000000; stroke-width: 0.8"/>
     </g>
     <g id="line2d_22">
      <g>
       <use xlink:href="#ma2d74c835d" x="72.965012" y="339.891411" style="stroke: #000000; stroke-width: 1.1"/>
      </g>
     </g>
     <g id="text_12">
      <!-- $\mathdefault{600}$ -->
      <g transform="translate(38.050726 346.80991) scale(0.2 -0.2)">
       <defs>
        <path id="CMR17-36" d="M 678 2176 
C 678 3690 1395 4032 1811 4032 
C 1946 4032 2272 4009 2400 3776 
C 2298 3776 2106 3776 2106 3553 
C 2106 3381 2246 3323 2336 3323 
C 2394 3323 2566 3348 2566 3560 
C 2566 3954 2246 4179 1805 4179 
C 1043 4179 243 3390 243 1984 
C 243 253 966 -128 1478 -128 
C 2099 -128 2688 427 2688 1283 
C 2688 2081 2170 2662 1517 2662 
C 1126 2662 838 2407 678 1960 
L 678 2176 
z
M 1478 25 
C 691 25 691 1200 691 1436 
C 691 1896 909 2560 1504 2560 
C 1613 2560 1926 2560 2138 2120 
C 2253 1870 2253 1609 2253 1289 
C 2253 944 2253 690 2118 434 
C 1978 171 1773 25 1478 25 
z
" transform="scale(0.015625)"/>
       </defs>
       <use xlink:href="#CMR17-36" transform="scale(0.996264)"/>
       <use xlink:href="#CMR17-30" transform="translate(45.690477 0) scale(0.996264)"/>
       <use xlink:href="#CMR17-30" transform="translate(91.380954 0) scale(0.996264)"/>
      </g>
     </g>
    </g>
    <g id="ytick_5">
     <g id="line2d_23">
      <path d="M 72.965012 298.217882 
L 476.165012 298.217882 
" clip-path="url(#p3f14b94b79)" style="fill: none; stroke-dasharray: 0.8,3.2; stroke-dashoffset: 0; stroke: #000000; stroke-width: 0.8"/>
     </g>
     <g id="line2d_24">
      <g>
       <use xlink:href="#ma2d74c835d" x="72.965012" y="298.217882" style="stroke: #000000; stroke-width: 1.1"/>
      </g>
     </g>
     <g id="text_13">
      <!-- $\mathdefault{800}$ -->
      <g transform="translate(38.050726 305.13638) scale(0.2 -0.2)">
       <defs>
        <path id="CMR17-38" d="M 1741 2264 
C 2144 2467 2554 2773 2554 3263 
C 2554 3841 1990 4179 1472 4179 
C 890 4179 378 3759 378 3180 
C 378 3021 416 2747 666 2505 
C 730 2442 998 2251 1171 2130 
C 883 1983 211 1634 211 934 
C 211 279 838 -128 1459 -128 
C 2144 -128 2720 362 2720 1010 
C 2720 1590 2330 1857 2074 2029 
L 1741 2264 
z
M 902 2822 
C 851 2854 595 3051 595 3351 
C 595 3739 998 4032 1459 4032 
C 1965 4032 2336 3676 2336 3262 
C 2336 2669 1670 2331 1638 2331 
C 1632 2331 1626 2331 1574 2370 
L 902 2822 
z
M 2080 1519 
C 2176 1449 2483 1240 2483 851 
C 2483 381 2010 25 1472 25 
C 890 25 448 438 448 940 
C 448 1443 838 1862 1280 2060 
L 2080 1519 
z
" transform="scale(0.015625)"/>
       </defs>
       <use xlink:href="#CMR17-38" transform="scale(0.996264)"/>
       <use xlink:href="#CMR17-30" transform="translate(45.690477 0) scale(0.996264)"/>
       <use xlink:href="#CMR17-30" transform="translate(91.380954 0) scale(0.996264)"/>
      </g>
     </g>
    </g>
    <g id="ytick_6">
     <g id="line2d_25">
      <path d="M 72.965012 256.544352 
L 476.165012 256.544352 
" clip-path="url(#p3f14b94b79)" style="fill: none; stroke-dasharray: 0.8,3.2; stroke-dashoffset: 0; stroke: #000000; stroke-width: 0.8"/>
     </g>
     <g id="line2d_26">
      <g>
       <use xlink:href="#ma2d74c835d" x="72.965012" y="256.544352" style="stroke: #000000; stroke-width: 1.1"/>
      </g>
     </g>
     <g id="text_14">
      <!-- $\mathdefault{1000}$ -->
      <g transform="translate(28.91263 263.462851) scale(0.2 -0.2)">
       <use xlink:href="#CMR17-31" transform="scale(0.996264)"/>
       <use xlink:href="#CMR17-30" transform="translate(45.690477 0) scale(0.996264)"/>
       <use xlink:href="#CMR17-30" transform="translate(91.380954 0) scale(0.996264)"/>
       <use xlink:href="#CMR17-30" transform="translate(137.071431 0) scale(0.996264)"/>
      </g>
     </g>
    </g>
    <g id="ytick_7">
     <g id="line2d_27">
      <path d="M 72.965012 214.870823 
L 476.165012 214.870823 
" clip-path="url(#p3f14b94b79)" style="fill: none; stroke-dasharray: 0.8,3.2; stroke-dashoffset: 0; stroke: #000000; stroke-width: 0.8"/>
     </g>
     <g id="line2d_28">
      <g>
       <use xlink:href="#ma2d74c835d" x="72.965012" y="214.870823" style="stroke: #000000; stroke-width: 1.1"/>
      </g>
     </g>
     <g id="text_15">
      <!-- $\mathdefault{1200}$ -->
      <g transform="translate(28.91263 221.789321) scale(0.2 -0.2)">
       <use xlink:href="#CMR17-31" transform="scale(0.996264)"/>
       <use xlink:href="#CMR17-32" transform="translate(45.690477 0) scale(0.996264)"/>
       <use xlink:href="#CMR17-30" transform="translate(91.380954 0) scale(0.996264)"/>
       <use xlink:href="#CMR17-30" transform="translate(137.071431 0) scale(0.996264)"/>
      </g>
     </g>
    </g>
    <g id="ytick_8">
     <g id="line2d_29">
      <path d="M 72.965012 173.197293 
L 476.165012 173.197293 
" clip-path="url(#p3f14b94b79)" style="fill: none; stroke-dasharray: 0.8,3.2; stroke-dashoffset: 0; stroke: #000000; stroke-width: 0.8"/>
     </g>
     <g id="line2d_30">
      <g>
       <use xlink:href="#ma2d74c835d" x="72.965012" y="173.197293" style="stroke: #000000; stroke-width: 1.1"/>
      </g>
     </g>
     <g id="text_16">
      <!-- $\mathdefault{1400}$ -->
      <g transform="translate(28.91263 180.115792) scale(0.2 -0.2)">
       <use xlink:href="#CMR17-31" transform="scale(0.996264)"/>
       <use xlink:href="#CMR17-34" transform="translate(45.690477 0) scale(0.996264)"/>
       <use xlink:href="#CMR17-30" transform="translate(91.380954 0) scale(0.996264)"/>
       <use xlink:href="#CMR17-30" transform="translate(137.071431 0) scale(0.996264)"/>
      </g>
     </g>
    </g>
    <g id="text_17">
     <!-- $F$ -->
     <g transform="translate(21.036997 309.94682) rotate(-90) scale(0.2 -0.2)">
      <defs>
       <path id="CMMI12-46" d="M 1901 2055 
L 2515 2055 
C 3002 2055 3040 1946 3040 1761 
C 3040 1678 3027 1589 2995 1448 
C 2982 1423 2976 1391 2976 1378 
C 2976 1333 3002 1308 3046 1308 
C 3098 1308 3104 1333 3130 1435 
L 3501 2935 
C 3501 2961 3482 2999 3437 2999 
C 3379 2999 3373 2974 3347 2863 
C 3213 2376 3085 2240 2528 2240 
L 1946 2240 
L 2362 3926 
C 2419 4154 2432 4154 2694 4154 
L 3552 4154 
C 4352 4154 4467 3918 4467 3464 
C 4467 3426 4467 3285 4448 3119 
C 4442 3094 4429 3011 4429 2985 
C 4429 2934 4461 2915 4499 2915 
C 4544 2915 4570 2941 4582 3055 
L 4717 4174 
C 4717 4195 4730 4263 4730 4277 
C 4730 4352 4672 4352 4557 4352 
L 1523 4352 
C 1402 4352 1338 4352 1338 4229 
C 1338 4154 1382 4154 1491 4154 
C 1888 4154 1888 4113 1888 4050 
C 1888 4018 1882 3992 1862 3922 
L 998 473 
C 941 249 928 185 480 185 
C 358 185 294 185 294 70 
C 294 0 352 0 390 0 
C 512 0 640 0 762 0 
L 1594 0 
C 1734 0 1888 0 2029 0 
C 2086 0 2163 0 2163 115 
C 2163 185 2125 185 1984 185 
C 1478 185 1466 229 1466 324 
C 1466 356 1478 406 1491 449 
L 1901 2055 
z
" transform="scale(0.015625)"/>
      </defs>
      <use xlink:href="#CMMI12-46" transform="scale(0.996264)"/>
     </g>
    </g>
   </g>
   <g id="line2d_31">
    <path d="M 72.965012 464.912 
L 76.766224 461.70026 
L 80.567436 458.488521 
L 84.368648 455.276781 
L 88.169861 452.065041 
L 91.971073 448.853301 
L 95.772285 445.641562 
L 99.573497 442.429822 
L 103.374709 439.218082 
L 107.175921 436.006342 
L 110.977133 432.794603 
L 114.778345 429.582863 
L 118.579558 426.371123 
L 122.38077 423.159383 
L 126.181982 419.947644 
L 129.983194 416.735904 
L 133.784406 413.524164 
L 137.585618 410.312425 
L 141.38683 407.100685 
L 145.188042 403.888945 
L 148.989254 400.677205 
L 152.790467 397.465466 
L 156.591679 394.253726 
L 160.392891 391.041986 
L 164.194103 387.830246 
L 167.995315 384.618507 
L 171.796527 381.406767 
L 175.597739 378.195027 
L 179.398951 374.983287 
L 183.200164 371.771548 
L 187.001376 368.559808 
L 190.802588 365.348068 
L 194.6038 362.136329 
L 198.405012 358.924589 
L 202.206224 355.712849 
L 206.007436 352.501109 
L 209.808648 349.28937 
L 213.609861 346.07763 
L 217.411073 342.86589 
L 221.212285 339.65415 
L 225.013497 336.442411 
L 228.814709 333.230671 
L 232.615921 330.018931 
L 236.417133 326.807191 
L 240.218345 323.595452 
L 244.019558 320.383712 
L 247.82077 317.171972 
L 251.621982 313.960233 
L 255.423194 310.748493 
L 259.224406 307.536753 
L 263.025618 304.325013 
L 266.82683 301.113274 
L 270.628042 297.901534 
L 274.429254 294.689794 
L 278.230467 291.478054 
L 282.031679 288.266315 
L 285.832891 285.054575 
L 289.634103 281.842835 
L 293.435315 278.631095 
L 297.236527 275.419356 
L 301.037739 272.207616 
" clip-path="url(#p3f14b94b79)" style="fill: none; stroke: #3344aa; stroke-width: 3.91; stroke-linecap: square"/>
   </g>
   <g id="line2d_32">
    <path d="M 304.838951 268.995876 
L 308.640164 265.784137 
L 312.441376 262.572397 
L 316.242588 259.360657 
L 320.0438 256.148917 
L 323.845012 252.937178 
L 327.646224 249.725438 
L 331.447436 246.513698 
L 335.248648 243.301958 
L 339.049861 240.090219 
L 342.851073 236.878479 
L 346.652285 233.666739 
L 350.453497 230.454999 
L 354.254709 227.24326 
L 358.055921 224.03152 
L 361.857133 220.81978 
L 365.658345 217.608041 
L 369.459558 214.396301 
L 373.26077 211.184561 
L 377.061982 207.972821 
L 380.863194 204.761082 
L 384.664406 201.549342 
L 388.465618 198.337602 
L 392.26683 195.125862 
L 396.068042 191.914123 
L 399.869254 188.702383 
L 403.670467 185.490643 
L 407.471679 182.278903 
L 411.272891 179.067164 
L 415.074103 175.855424 
L 418.875315 172.643684 
L 422.676527 169.431945 
L 426.477739 166.220205 
L 430.278951 163.008465 
L 434.080164 159.796725 
L 437.881376 156.584986 
L 441.682588 153.373246 
L 445.4838 150.161506 
L 449.285012 146.949766 
" clip-path="url(#p3f14b94b79)" style="fill: none; stroke-dasharray: 3.91,3.91,3.91,3.91; stroke-dashoffset: 0; stroke: #4444bb; stroke-width: 3.91"/>
   </g>
   <g id="line2d_33">
    <path d="M 304.838951 286.602691 
L 308.640164 284.08991 
L 312.441376 281.57155 
L 316.242588 279.04784 
L 320.0438 276.518993 
L 323.845012 273.985214 
L 327.646224 271.446696 
L 331.447436 268.903624 
L 335.248648 266.356173 
L 339.049861 263.804509 
L 342.851073 261.248791 
L 346.652285 258.689168 
L 350.453497 256.125786 
L 354.254709 253.55878 
L 358.055921 250.988281 
L 361.857133 248.414414 
L 365.658345 245.837297 
L 369.459558 243.257043 
L 373.26077 240.673762 
L 377.061982 238.087555 
L 380.863194 235.498523 
L 384.664406 232.906759 
L 388.465618 230.312355 
L 392.26683 227.715397 
L 396.068042 225.115968 
L 399.869254 222.514147 
L 403.670467 219.910011 
L 407.471679 217.303632 
L 411.272891 214.695082 
L 415.074103 212.084426 
L 418.875315 209.47173 
L 422.676527 206.857055 
L 426.477739 204.240462 
L 430.278951 201.622006 
L 434.080164 199.001744 
L 437.881376 196.379728 
L 441.682588 193.756009 
L 445.4838 191.130636 
L 449.285012 188.503657 
" clip-path="url(#p3f14b94b79)" style="fill: none; stroke: #aa4444; stroke-width: 3.22; stroke-linecap: square"/>
   </g>
   <g id="line2d_34">
    <path d="M 167.995315 369.623048 
L 171.796527 367.640837 
L 175.597739 365.573811 
L 179.398951 363.427153 
L 183.200164 361.205807 
L 187.001376 358.914469 
L 190.802588 356.55758 
L 194.6038 354.139323 
L 198.405012 351.66363 
L 202.206224 349.134184 
L 206.007436 346.554433 
L 209.808648 343.927594 
L 213.609861 341.256669 
L 217.411073 338.544451 
L 221.212285 335.793544 
L 225.013497 333.006369 
L 228.814709 330.185175 
L 232.615921 327.332056 
L 236.417133 324.448958 
L 240.218345 321.537688 
L 244.019558 318.599928 
L 247.82077 315.637243 
L 251.621982 312.651087 
L 255.423194 309.642814 
L 259.224406 306.613686 
L 263.025618 303.564877 
L 266.82683 300.497481 
L 270.628042 297.412521 
L 274.429254 294.310948 
L 278.230467 291.193653 
L 282.031679 288.061467 
L 285.832891 284.915168 
L 289.634103 281.755482 
L 293.435315 278.583091 
L 297.236527 275.398632 
L 301.037739 272.202705 
L 304.838951 268.99587 
L 308.640164 265.778654 
L 312.441376 262.551552 
L 316.242588 259.31503 
L 320.0438 256.069526 
L 323.845012 252.815452 
L 327.646224 249.553197 
L 331.447436 246.283127 
L 335.248648 243.005586 
L 339.049861 239.720903 
L 342.851073 236.429384 
L 346.652285 233.131321 
L 350.453497 229.826988 
L 354.254709 226.516648 
L 358.055921 223.200547 
L 361.857133 219.878918 
L 365.658345 216.551984 
L 369.459558 213.219954 
L 373.26077 209.883029 
L 377.061982 206.541399 
L 380.863194 203.195242 
L 384.664406 199.844732 
L 388.465618 196.49003 
L 392.26683 193.131293 
L 396.068042 189.768667 
L 399.869254 186.402294 
L 403.670467 183.032308 
L 407.471679 179.658837 
L 411.272891 176.282003 
L 415.074103 172.901924 
L 418.875315 169.518709 
L 422.676527 166.132466 
L 426.477739 162.743297 
L 430.278951 159.351299 
L 434.080164 155.956565 
L 437.881376 152.559185 
L 441.682588 149.159243 
L 445.4838 145.756822 
L 449.285012 142.352 
" clip-path="url(#p3f14b94b79)" style="fill: none; stroke: #44cc44; stroke-width: 2.3; stroke-linecap: square"/>
   </g>
   <g id="line2d_35">
    <path d="M 72.965012 377.930985 
L 76.766224 379.297475 
L 80.567436 380.539619 
L 84.368648 381.651852 
L 88.169861 382.628906 
L 91.971073 383.465916 
L 95.772285 384.158526 
L 99.573497 384.702996 
L 103.374709 385.096295 
L 107.175921 385.33618 
L 110.977133 385.421263 
L 114.778345 385.351048 
L 118.579558 385.125944 
L 122.38077 384.747255 
L 126.181982 384.217145 
L 129.983194 383.538573 
L 133.784406 382.715214 
L 137.585618 381.751371 
L 141.38683 380.651863 
L 145.188042 379.421925 
L 148.989254 378.067098 
L 152.790467 376.593129 
L 156.591679 375.005879 
L 160.392891 373.311236 
L 164.194103 371.515045 
" clip-path="url(#p3f14b94b79)" style="fill: none; stroke: #44cc44; stroke-width: 2.3; stroke-linecap: square"/>
   </g>
   <g id="patch_3">
    <path d="M 72.965012 464.912 
L 72.965012 142.352 
" style="fill: none; stroke: #000000; stroke-width: 1.2; stroke-linejoin: miter; stroke-linecap: square"/>
   </g>
   <g id="patch_4">
    <path d="M 476.165012 464.912 
L 476.165012 142.352 
" style="fill: none; stroke: #000000; stroke-width: 1.2; stroke-linejoin: miter; stroke-linecap: square"/>
   </g>
   <g id="patch_5">
    <path d="M 72.965012 464.912 
L 476.165012 464.912 
" style="fill: none; stroke: #000000; stroke-width: 1.2; stroke-linejoin: miter; stroke-linecap: square"/>
   </g>
   <g id="patch_6">
    <path d="M 72.965012 142.352 
L 476.165012 142.352 
" style="fill: none; stroke: #000000; stroke-width: 1.2; stroke-linejoin: miter; stroke-linecap: square"/>
   </g>
   <g id="legend_1">
    <g id="patch_7">
     <path d="M 103.143119 139.125573 
L 445.986905 139.125573 
Q 449.986905 139.125573 449.986905 135.125573 
L 449.986905 11.2 
Q 449.986905 7.2 445.986905 7.2 
L 103.143119 7.2 
Q 99.143119 7.2 99.143119 11.2 
L 99.143119 135.125573 
Q 99.143119 139.125573 103.143119 139.125573 
z
" style="fill: #ffffff; opacity: 0.8; stroke: #cccccc; stroke-linejoin: miter"/>
    </g>
    <g id="line2d_36">
     <path d="M 107.143119 26.619711 
L 127.143119 26.619711 
L 147.143119 26.619711 
" style="fill: none; stroke: #3344aa; stroke-width: 3.91; stroke-linecap: square"/>
    </g>
    <g id="text_18">
     <!-- $F=\frac{\mu Mg}{\sqrt{1+\mu^2}}\hspace{4.0cm}\mu=0{,}65$ -->
     <g transform="translate(163.143119 33.619711) scale(0.2 -0.2)">
      <defs>
       <path id="CMR17-3d" d="M 4115 2017 
C 4211 2017 4307 2017 4307 2125 
C 4307 2240 4198 2240 4090 2240 
L 512 2240 
C 403 2240 294 2240 294 2125 
C 294 2017 390 2017 486 2017 
L 4115 2017 
z
M 4090 896 
C 4198 896 4307 896 4307 1011 
C 4307 1119 4211 1119 4115 1119 
L 486 1119 
C 390 1119 294 1119 294 1011 
C 294 896 403 896 512 896 
L 4090 896 
z
" transform="scale(0.015625)"/>
       <path id="CMMI12-16" d="M 922 140 
C 1082 -6 1318 -64 1536 -64 
C 1946 -64 2227 208 2374 405 
C 2438 69 2707 -64 2931 -64 
C 3123 -64 3277 50 3392 277 
C 3494 493 3584 879 3584 903 
C 3584 935 3558 960 3520 960 
C 3462 960 3456 928 3430 834 
C 3334 461 3213 64 2950 64 
C 2765 64 2752 229 2752 358 
C 2752 504 2810 735 2854 926 
L 3034 1615 
C 3059 1737 3130 2023 3162 2139 
C 3200 2292 3270 2567 3270 2592 
C 3270 2688 3194 2752 3098 2752 
C 3040 2752 2906 2726 2854 2535 
L 2406 760 
C 2374 632 2374 619 2291 517 
C 2214 409 1965 64 1562 64 
C 1203 64 1088 326 1088 625 
C 1088 811 1146 1034 1171 1143 
L 1459 2293 
C 1491 2414 1542 2618 1542 2657 
C 1542 2759 1459 2816 1376 2816 
C 1318 2816 1178 2797 1126 2592 
L 198 -1107 
C 192 -1139 179 -1177 179 -1216 
C 179 -1312 256 -1376 352 -1376 
C 538 -1376 576 -1228 621 -1050 
L 922 140 
z
" transform="scale(0.015625)"/>
       <path id="CMMI12-67" d="M 2163 811 
C 2138 709 2125 683 2042 588 
C 1779 249 1510 128 1312 128 
C 1101 128 902 294 902 734 
C 902 1073 1094 1788 1235 2076 
C 1421 2433 1709 2689 1978 2689 
C 2400 2689 2483 2165 2483 2127 
L 2464 2037 
L 2163 811 
z
M 2560 2395 
C 2477 2580 2298 2816 1978 2816 
C 1280 2816 486 1941 486 990 
C 486 326 890 0 1299 0 
C 1638 0 1939 268 2054 396 
L 1914 -171 
C 1824 -516 1786 -674 1555 -894 
C 1293 -1152 1050 -1152 909 -1152 
C 717 -1152 557 -1139 397 -1089 
C 602 -1033 653 -858 653 -789 
C 653 -689 576 -588 435 -588 
C 282 -588 115 -714 115 -922 
C 115 -1180 378 -1280 922 -1280 
C 1747 -1280 2176 -753 2259 -410 
L 2970 2435 
C 2989 2511 2989 2524 2989 2536 
C 2989 2625 2918 2695 2822 2695 
C 2669 2695 2579 2567 2560 2395 
z
" transform="scale(0.015625)"/>
       <path id="CMSY10-70" d="M 2490 -5472 
L 1363 -2982 
C 1318 -2880 1286 -2880 1267 -2880 
C 1261 -2880 1229 -2880 1158 -2931 
L 550 -3392 
C 467 -3456 467 -3475 467 -3494 
C 467 -3526 486 -3565 531 -3565 
C 570 -3565 678 -3475 749 -3424 
C 787 -3393 883 -3323 954 -3271 
L 2214 -6042 
C 2259 -6144 2291 -6144 2349 -6144 
C 2445 -6144 2464 -6106 2509 -6016 
L 5414 0 
C 5459 90 5459 115 5459 128 
C 5459 192 5408 256 5331 256 
C 5280 256 5235 224 5184 122 
L 2490 -5472 
z
" transform="scale(0.015625)"/>
       <path id="CMR17-2b" d="M 2413 1472 
L 4109 1472 
C 4198 1472 4307 1472 4307 1580 
C 4307 1695 4205 1695 4109 1695 
L 2413 1695 
L 2413 3386 
C 2413 3475 2413 3584 2304 3584 
C 2189 3584 2189 3482 2189 3386 
L 2189 1695 
L 493 1695 
C 403 1695 294 1695 294 1587 
C 294 1472 397 1472 493 1472 
L 2189 1472 
L 2189 -218 
C 2189 -307 2189 -416 2298 -416 
C 2413 -416 2413 -314 2413 -218 
L 2413 1472 
z
" transform="scale(0.015625)"/>
       <path id="CMMI12-3b" d="M 1248 -31 
C 1248 343 1126 619 864 619 
C 659 619 557 453 557 313 
C 557 172 653 0 870 0 
C 954 0 1024 26 1082 83 
C 1094 96 1101 96 1107 96 
C 1120 96 1120 5 1120 -27 
C 1120 -240 1082 -659 710 -1080 
C 640 -1157 640 -1170 640 -1183 
C 640 -1216 672 -1248 704 -1248 
C 755 -1248 1248 -771 1248 -31 
z
" transform="scale(0.015625)"/>
      </defs>
      <use xlink:href="#CMMI12-46" transform="scale(0.996264)"/>
      <use xlink:href="#CMR17-3d" transform="translate(104.370801 0) scale(0.996264)"/>
      <use xlink:href="#CMMI12-16" transform="translate(244.95687 44.444174) scale(0.697382)"/>
      <use xlink:href="#CMMI12-4d" transform="translate(286.040674 44.444174) scale(0.697382)"/>
      <use xlink:href="#CMMI12-67" transform="translate(359.386417 44.444174) scale(0.697382)"/>
      <use xlink:href="#CMSY10-70" transform="translate(204.955112 10.959284) scale(0.996264)"/>
      <use xlink:href="#CMR17-31" transform="translate(287.977366 -57.953132) scale(0.697382)"/>
      <use xlink:href="#CMR17-2b" transform="translate(319.960548 -57.953132) scale(0.697382)"/>
      <use xlink:href="#CMMI12-16" transform="translate(370.16068 -57.953132) scale(0.697382)"/>
      <use xlink:href="#CMR17-32" transform="translate(411.244485 -37.806559) scale(0.498132)"/>
      <use xlink:href="#CMMI12-16" transform="translate(549.169192 0) scale(0.996264)"/>
      <use xlink:href="#CMR17-3d" transform="translate(635.534622 0) scale(0.996264)"/>
      <use xlink:href="#CMR17-30" transform="translate(734.92342 0) scale(0.996264)"/>
      <use xlink:href="#CMMI12-3b" transform="translate(780.613897 0) scale(0.996264)"/>
      <use xlink:href="#CMR17-36" transform="translate(807.711074 0) scale(0.996264)"/>
      <use xlink:href="#CMR17-35" transform="translate(853.401551 0) scale(0.996264)"/>
      <path d="M 204.955112 22.914133 
L 434.587855 22.914133 
L 434.587855 26.899083 
L 204.955112 26.899083 
L 204.955112 22.914133 
z
"/>
      <path d="M 287.977366 10.959284 
L 434.587855 10.959284 
L 434.587855 14.944234 
L 287.977366 14.944234 
L 287.977366 10.959284 
z
"/>
     </g>
    </g>
    <g id="line2d_37">
     <path d="M 107.143119 78.097561 
L 127.143119 78.097561 
L 147.143119 78.097561 
" style="fill: none; stroke: #aa4444; stroke-width: 3.22; stroke-linecap: square"/>
    </g>
    <g id="text_19">
     <!-- $F=\mu g \sqrt{\frac{m^2+M^2}{2}}$ -->
     <g transform="translate(163.143119 85.097561) scale(0.2 -0.2)">
      <defs>
       <path id="CMEX10-71" d="M 2970 -10304 
L 1594 -5504 
L 704 -6547 
L 806 -6643 
L 1242 -6131 
L 2714 -11264 
C 2925 -11264 2931 -11264 2982 -11110 
L 6496 0 
C 6528 96 6528 122 6528 128 
C 6528 198 6477 256 6400 256 
C 6304 256 6278 173 6253 90 
L 2970 -10304 
z
" transform="scale(0.015625)"/>
       <path id="CMMI12-6d" d="M 1318 1871 
C 1331 1910 1491 2229 1728 2433 
C 1894 2586 2112 2689 2362 2689 
C 2618 2689 2707 2497 2707 2242 
C 2707 2203 2707 2076 2630 1775 
L 2470 1118 
C 2419 926 2298 453 2285 383 
C 2259 287 2221 121 2221 96 
C 2221 6 2291 -64 2387 -64 
C 2579 -64 2611 83 2669 313 
L 3053 1839 
C 3066 1890 3398 2689 4102 2689 
C 4358 2689 4448 2497 4448 2242 
C 4448 1884 4198 1188 4058 805 
C 4000 651 3968 568 3968 453 
C 3968 166 4166 -64 4474 -64 
C 5069 -64 5293 875 5293 913 
C 5293 945 5267 971 5229 971 
C 5171 971 5165 952 5133 843 
C 4986 332 4749 64 4493 64 
C 4429 64 4326 64 4326 269 
C 4326 436 4403 640 4429 710 
C 4544 1018 4832 1773 4832 2145 
C 4832 2528 4608 2816 4122 2816 
C 3693 2816 3347 2574 3091 2197 
C 3072 2542 2861 2816 2381 2816 
C 1811 2816 1510 2415 1395 2255 
C 1376 2618 1114 2816 832 2816 
C 646 2816 499 2727 378 2484 
C 262 2254 173 1865 173 1839 
C 173 1814 198 1782 243 1782 
C 294 1782 301 1788 339 1935 
C 435 2312 557 2689 813 2689 
C 960 2689 1011 2586 1011 2395 
C 1011 2254 947 2005 902 1807 
L 723 1118 
C 698 996 627 709 595 594 
C 550 428 480 128 480 96 
C 480 6 550 -64 646 -64 
C 723 -64 813 -26 864 70 
C 877 102 934 326 966 453 
L 1107 1028 
L 1318 1871 
z
" transform="scale(0.015625)"/>
      </defs>
      <use xlink:href="#CMMI12-46" transform="scale(0.996264)"/>
      <use xlink:href="#CMR17-3d" transform="translate(104.370801 0) scale(0.996264)"/>
      <use xlink:href="#CMMI12-16" transform="translate(203.759598 0) scale(0.996264)"/>
      <use xlink:href="#CMMI12-67" transform="translate(262.45102 0) scale(0.996264)"/>
      <use xlink:href="#CMEX10-71" transform="translate(312.736509 118.726559) scale(0.996264)"/>
      <use xlink:href="#CMMI12-6d" transform="translate(413.558698 39.226102) scale(0.697382)"/>
      <use xlink:href="#CMR17-32" transform="translate(473.287489 59.372674) scale(0.498132)"/>
      <use xlink:href="#CMR17-2b" transform="translate(496.630859 39.226102) scale(0.697382)"/>
      <use xlink:href="#CMMI12-4d" transform="translate(546.830991 39.226102) scale(0.697382)"/>
      <use xlink:href="#CMR17-32" transform="translate(620.176733 59.372674) scale(0.498132)"/>
      <use xlink:href="#CMR17-32" transform="translate(512.54781 -34.355253) scale(0.697382)"/>
      <path d="M 412.363184 118.726559 
L 644.715617 118.726559 
L 644.715617 122.711508 
L 412.363184 122.711508 
L 412.363184 118.726559 
z
"/>
      <path d="M 413.558698 22.914133 
L 643.520103 22.914133 
L 643.520103 26.899083 
L 413.558698 26.899083 
L 413.558698 22.914133 
z
"/>
     </g>
    </g>
    <g id="line2d_38">
     <path d="M 107.143119 117.254534 
L 127.143119 117.254534 
L 147.143119 117.254534 
" style="fill: none; stroke: #44cc44; stroke-width: 2.3; stroke-linecap: square"/>
    </g>
    <g id="text_20">
     <!-- $F=\frac{g}{2}\sqrt{(M-m)^2 + \mu^2(M+m)^2}$ -->
     <g transform="translate(163.143119 124.254534) scale(0.2 -0.2)">
      <defs>
       <path id="CMEX10-70" d="M 2714 -7424 
C 2912 -7424 2918 -7418 2982 -7296 
L 6483 13 
C 6528 96 6528 109 6528 128 
C 6528 198 6477 256 6400 256 
C 6317 256 6291 198 6259 128 
L 2957 -6758 
L 1594 -3584 
L 704 -4269 
L 800 -4371 
L 1254 -4026 
L 2714 -7424 
z
" transform="scale(0.015625)"/>
       <path id="CMR17-28" d="M 1958 -1561 
C 1958 -1555 1958 -1542 1939 -1523 
C 1645 -1224 858 -407 858 1581 
C 858 3569 1632 4379 1946 4697 
C 1946 4704 1958 4717 1958 4736 
C 1958 4755 1939 4768 1914 4768 
C 1843 4768 1299 4296 986 3594 
C 666 2887 576 2199 576 1588 
C 576 1128 621 351 1005 -471 
C 1312 -1135 1837 -1600 1914 -1600 
C 1946 -1600 1958 -1587 1958 -1561 
z
" transform="scale(0.015625)"/>
       <path id="CMSY10-0" d="M 4218 1472 
C 4326 1472 4442 1472 4442 1600 
C 4442 1728 4326 1728 4218 1728 
L 755 1728 
C 646 1728 531 1728 531 1600 
C 531 1472 646 1472 755 1472 
L 4218 1472 
z
" transform="scale(0.015625)"/>
       <path id="CMR17-29" d="M 1683 1581 
C 1683 2040 1638 2817 1254 3639 
C 947 4303 422 4768 346 4768 
C 326 4768 301 4761 301 4729 
C 301 4717 307 4710 314 4697 
C 621 4378 1402 3568 1402 1584 
C 1402 -407 627 -1217 314 -1537 
C 307 -1549 301 -1556 301 -1568 
C 301 -1600 326 -1600 346 -1600 
C 416 -1600 960 -1128 1274 -426 
C 1594 281 1683 969 1683 1581 
z
" transform="scale(0.015625)"/>
      </defs>
      <use xlink:href="#CMMI12-46" transform="scale(0.996264)"/>
      <use xlink:href="#CMR17-3d" transform="translate(104.370801 0) scale(0.996264)"/>
      <use xlink:href="#CMMI12-67" transform="translate(204.955112 44.444174) scale(0.697382)"/>
      <use xlink:href="#CMR17-32" transform="translate(206.56337 -34.355253) scale(0.697382)"/>
      <use xlink:href="#CMEX10-70" transform="translate(241.350307 85.177989) scale(0.996264)"/>
      <use xlink:href="#CMR17-28" transform="translate(340.976982 0) scale(0.996264)"/>
      <use xlink:href="#CMMI12-4d" transform="translate(376.25775 0) scale(0.996264)"/>
      <use xlink:href="#CMSY10-0" transform="translate(503.177036 0) scale(0.996264)"/>
      <use xlink:href="#CMMI12-6d" transform="translate(602.80371 0) scale(0.996264)"/>
      <use xlink:href="#CMR17-29" transform="translate(688.130935 0) scale(0.996264)"/>
      <use xlink:href="#CMR17-32" transform="translate(723.411703 28.780957) scale(0.697382)"/>
      <use xlink:href="#CMR17-2b" transform="translate(778.032224 0) scale(0.996264)"/>
      <use xlink:href="#CMMI12-16" transform="translate(871.886219 0) scale(0.996264)"/>
      <use xlink:href="#CMR17-32" transform="translate(930.57764 28.780957) scale(0.697382)"/>
      <use xlink:href="#CMR17-28" transform="translate(963.058954 0) scale(0.996264)"/>
      <use xlink:href="#CMMI12-4d" transform="translate(998.339722 0) scale(0.996264)"/>
      <use xlink:href="#CMR17-2b" transform="translate(1125.259008 0) scale(0.996264)"/>
      <use xlink:href="#CMMI12-6d" transform="translate(1219.113003 0) scale(0.996264)"/>
      <use xlink:href="#CMR17-29" transform="translate(1304.440228 0) scale(0.996264)"/>
      <use xlink:href="#CMR17-32" transform="translate(1339.720996 28.780957) scale(0.697382)"/>
      <path d="M 204.955112 22.914133 
L 240.154794 22.914133 
L 240.154794 26.899083 
L 204.955112 26.899083 
L 204.955112 22.914133 
z
"/>
      <path d="M 340.976982 85.177989 
L 1372.20231 85.177989 
L 1372.20231 89.162938 
L 340.976982 89.162938 
L 340.976982 85.177989 
z
"/>
     </g>
    </g>
   </g>
  </g>
 </g>
 <defs>
  <clipPath id="p3f14b94b79">
   <rect x="72.965012" y="142.352" width="403.2" height="322.56"/>
  </clipPath>
 </defs>
</svg>
